<svg id="Layer_1" height="30" viewBox="0 0 512 512" width="30" xmlns="http://www.w3.org/2000/svg" data-name="Layer 1"><path d="m260.094 460.946a6 6 0 0 1 -6-6c0-13.827 6.684-21.158 12.054-27.048 4.984-5.467 8.921-9.785 8.921-18.963s-3.937-13.5-8.921-18.963c-5.37-5.89-12.054-13.221-12.054-27.048s6.684-21.155 12.054-27.044c4.984-5.466 8.921-9.784 8.921-18.96s-3.937-13.494-8.921-18.961c-5.37-5.889-12.054-13.219-12.054-27.045a6 6 0 0 1 12 0c0 9.177 3.937 13.494 8.921 18.961 5.37 5.889 12.054 13.219 12.054 27.045s-6.684 21.156-12.054 27.045c-4.984 5.466-8.921 9.783-8.921 18.959s3.937 13.5 8.922 18.963c5.37 5.89 12.053 13.221 12.053 27.048s-6.683 21.158-12.053 27.048c-4.985 5.467-8.922 9.785-8.922 18.963a6 6 0 0 1 -6 6z" fill="#d4e1f4"/><path d="m398.527 494.184a6 6 0 0 1 -6-6c0-12.9 6.214-19.714 11.207-25.191 4.511-4.948 8.074-8.856 8.074-17.105s-3.563-12.158-8.074-17.1c-4.993-5.476-11.207-12.292-11.207-25.19s6.214-19.712 11.207-25.187c4.511-4.948 8.074-8.855 8.074-17.1s-3.563-12.156-8.074-17.1c-4.993-5.475-11.207-12.29-11.207-25.187a6 6 0 0 1 12 0c0 8.247 3.563 12.155 8.074 17.1 4.993 5.476 11.207 12.291 11.207 25.188s-6.214 19.712-11.207 25.188c-4.511 4.947-8.074 8.854-8.074 17.1s3.563 12.157 8.074 17.1c4.993 5.476 11.207 12.292 11.207 25.19s-6.214 19.714-11.206 25.19c-4.512 4.948-8.075 8.856-8.075 17.106a6 6 0 0 1 -6 5.998z" fill="#ccd3df"/><path d="m102.276 466.184a6 6 0 0 1 -6-6c0-11.363 5.438-17.327 9.807-22.12 3.875-4.25 6.675-7.32 6.675-14.035s-2.8-9.785-6.675-14.035c-4.369-4.792-9.807-10.757-9.807-22.12s5.438-17.326 9.807-22.117c3.875-4.25 6.675-7.32 6.675-14.033s-2.8-9.784-6.675-14.033c-4.369-4.792-9.807-10.755-9.807-22.118a6 6 0 0 1 12 0c0 6.713 2.8 9.783 6.675 14.032 4.369 4.792 9.807 10.756 9.807 22.119s-5.438 17.326-9.808 22.118c-3.874 4.249-6.674 7.32-6.674 14.032s2.8 9.785 6.675 14.035c4.369 4.793 9.807 10.757 9.807 22.12s-5.438 17.328-9.807 22.12c-3.875 4.25-6.675 7.321-6.675 14.035a6 6 0 0 1 -6 6z" fill="#e2e4ed"/><path d="m475.65 193.43c0-55.9-34.53-101.22-77.12-101.22-21.53 0-40.99 11.58-54.99 30.24l-21.44 85.65.11.07c4.97 44.65 32.14 79.84 66.33 85.65l-7.64 23.39h35.25l-7.64-23.39c37.88-6.43 67.14-48.93 67.14-100.39z" fill="#f0c04e"/><path d="m134.54 53.32a13 13 0 1 1 -18.39 0 13.007 13.007 0 0 1 18.39 0z" fill="#d8ff33"/><path d="m351.29 336.08-2.76 8.3a29.7 29.7 0 0 0 0 18.82l2.76 8.29-8.29-2.76a29.7 29.7 0 0 0 -18.82 0l-8.29 2.76 2.76-8.29a29.7 29.7 0 0 0 0-18.82l-2.76-8.3 8.29 2.77a29.841 29.841 0 0 0 18.82 0z" fill="#55d8d8"/><path d="m168.2 207.78c0 43.99-25.01 80.32-57.39 85.82l6.53 19.99h-30.13l6.53-19.99c-32.38-5.5-57.39-41.83-57.39-85.82 0-47.78 29.52-86.53 65.93-86.53s65.92 38.75 65.92 86.53z" fill="#3090fc"/><path d="m413.875 292.628c-35.239-9.348-61.775-50.2-61.775-99.2s26.536-89.874 61.775-99.213a59.768 59.768 0 0 0 -15.345-2.005c-21.53 0-40.99 11.58-54.99 30.24l-21.44 85.65.11.07c4.97 44.65 32.14 79.84 66.33 85.65l-7.64 23.39h30.7a22.436 22.436 0 0 0 0-13.93l-3.09-9.46c1.811-.307 3.596-.72 5.365-1.192z" fill="#f8d961"/><path d="m117.275 292.055c-29.183-8.92-50.925-43.263-50.925-84.275s21.749-75.333 50.928-84.252a51.128 51.128 0 0 0 -15-2.278c-36.41 0-65.93 38.75-65.93 86.53 0 43.99 25.01 80.32 57.39 85.82l-6.53 19.99h30l.065-.2-6.463-19.79a51.832 51.832 0 0 0 6.465-1.545z" fill="#49bdff"/><path d="m343.54 122.45q.45 5.655.45 11.48c0 28.57-8.29 54.6-21.89 74.17-13.03 18.78-30.96 31.61-51.14 35.04l8.31 25.44h-38.35l8.31-25.44c-41.21-7-73.03-53.22-73.03-109.21 0-60.81 37.56-110.11 83.89-110.11 43.39 0 79.08 43.22 83.45 98.63z" fill="#e75163"/><path d="m275.082 242.292c-39.182-9.292-68.882-54.266-68.882-108.362s29.713-99.063 68.881-108.35a64.925 64.925 0 0 0 -14.991-1.76c-46.33 0-83.89 49.3-83.89 110.11 0 55.99 31.82 102.21 73.03 109.21l-8.31 25.44h30l.04-.123a40.764 40.764 0 0 0 0-25.317c1.386-.235 2.758-.525 4.122-.848z" fill="#ff7885"/><g fill="#f4f8fc"><path d="m205.789 163.306a6 6 0 0 1 -5.982-5.616c-1.567-24.454 2.106-46.54 10.919-65.644a6 6 0 1 1 10.9 5.027c-7.968 17.272-11.279 37.408-9.84 59.849a6 6 0 0 1 -5.6 6.372q-.203.012-.397.012z"/><path d="m228.435 80.65a6 6 0 0 1 -4.661-9.774 80.707 80.707 0 0 1 10.46-10.8 6 6 0 0 1 7.759 9.154 68.635 68.635 0 0 0 -8.89 9.189 5.988 5.988 0 0 1 -4.668 2.231z"/><path d="m348.607 220.917a6 6 0 0 1 -5.982-5.617c-1.446-22.56 1.945-42.941 10.081-60.576a6 6 0 1 1 10.9 5.026c-7.29 15.8-10.319 34.235-9 54.783a6 6 0 0 1 -5.606 6.367c-.134.013-.264.017-.393.017z"/><path d="m369.424 144.936a6 6 0 0 1 -4.661-9.774 74.587 74.587 0 0 1 9.679-9.989 6 6 0 0 1 7.759 9.154 62.629 62.629 0 0 0 -8.109 8.382 5.987 5.987 0 0 1 -4.668 2.227z"/><path d="m59.6 232.15a6 6 0 0 1 -5.982-5.616c-1.245-19.431 1.68-37 8.7-52.2a6 6 0 0 1 10.9 5.026c-6.17 13.377-8.733 28.991-7.616 46.409a6 6 0 0 1 -5.6 6.372q-.202.009-.402.009z"/><path d="m77.4 167.2a6 6 0 0 1 -4.661-9.774 64.586 64.586 0 0 1 8.388-8.655 6 6 0 1 1 7.759 9.154 52.621 52.621 0 0 0 -6.817 7.048 5.989 5.989 0 0 1 -4.669 2.227z"/></g><path d="m191.331 348.334h-11.157v-11.156a6 6 0 0 0 -12 0v11.156h-11.156a6 6 0 1 0 0 12h11.156v11.156a6 6 0 0 0 12 0v-11.156h11.157a6 6 0 0 0 0-12z" fill="#fff655"/><path d="m473.417 54.125h-11.156v-11.157a6 6 0 0 0 -12 0v11.157h-11.156a6 6 0 0 0 0 12h11.156v11.156a6 6 0 0 0 12 0v-11.156h11.156a6 6 0 0 0 0-12z" fill="#6addc7"/></svg>