<?xml version="1.0" encoding="iso-8859-1"?>
<!-- Generator: Adobe Illustrator 19.0.0, SVG Export Plug-In . SVG Version: 6.00 Build 0)  -->
<svg version="1.1" id="Capa_1" xmlns="http://www.w3.org/2000/svg" xmlns:xlink="http://www.w3.org/1999/xlink" x="0px" y="0px"
	 viewBox="0 0 404.36 404.36" style="enable-background:new 0 0 404.36 404.36;" xml:space="preserve">
<path style="fill:#1FC3F3;" d="M313.78,0c14.606,0.044,26.436,11.874,26.48,26.48v351.4c-0.044,14.606-11.874,26.436-26.48,26.48
	H90.58c-14.606-0.044-26.436-11.874-26.48-26.48V63.92h50.68c7.303-0.022,13.218-5.937,13.24-13.24V0L313.78,0z"/>
<path style="fill:#FFFFFF;" d="M130.18,293.36c-2.585-0.005-4.676-2.104-4.672-4.688c0.005-2.578,2.094-4.667,4.672-4.672h88
	c2.585,0.005,4.676,2.104,4.672,4.688c-0.005,2.578-2.094,4.667-4.672,4.672H130.18z M130.18,246.6
	c-2.585-0.005-4.676-2.104-4.672-4.688c0.005-2.578,2.094-4.667,4.672-4.672h144c2.585-0.005,4.684,2.087,4.688,4.672
	c0.005,2.585-2.087,4.684-4.672,4.688c-0.005,0-0.011,0-0.016,0H130.18z M130.18,199.88c-2.585,0-4.68-2.095-4.68-4.68
	c0-2.585,2.095-4.68,4.68-4.68h88c2.585,0,4.68,2.095,4.68,4.68c0,2.585-2.095,4.68-4.68,4.68l0,0H130.18z M130.18,153.16
	c-2.585,0-4.68-2.095-4.68-4.68c0-2.585,2.095-4.68,4.68-4.68h144c2.585,0,4.68,2.095,4.68,4.68c0,2.585-2.095,4.68-4.68,4.68
	H130.18z M130.18,106.44c-2.585,0-4.68-2.095-4.68-4.68c0-2.585,2.095-4.68,4.68-4.68h88c2.585,0,4.68,2.095,4.68,4.68
	c0,2.585-2.095,4.68-4.68,4.68l0,0H130.18z M130.18,340.08c-2.585-0.005-4.676-2.104-4.672-4.688
	c0.005-2.578,2.094-4.667,4.672-4.672h144c2.585-0.005,4.684,2.087,4.688,4.672c0.005,2.585-2.087,4.684-4.672,4.688
	c-0.005,0-0.011,0-0.016,0H130.18z"/>
<path style="fill:#047BAF;" d="M64.1,63.92h50.68c7.303-0.022,13.218-5.937,13.24-13.24V0L64.1,63.92z"/></svg>
